<svg xmlns="http://www.w3.org/2000/svg" width="800" height="450" viewBox="0 0 800 450">
  <defs>
    <linearGradient id="bg3" x1="0" y1="0" x2="1" y2="1">
      <stop offset="0" stop-color="#0d4f8b"/><stop offset="1" stop-color="#0a3a66"/>
    </linearGradient>
  </defs>
  <rect width="800" height="450" fill="url(#bg3)"/>
  <text x="400" y="70" font-family="Segoe UI,Arial" font-size="30" fill="#ffffff" text-anchor="middle" font-weight="bold">SỬA CHỮA – BẢO HÀNH</text>
  <text x="400" y="108" font-family="Segoe UI,Arial" font-size="20" fill="#ffd9a0" text-anchor="middle">Thiết bị gia đình các loại</text>
  <!-- appliance chips -->
  <g font-family="Segoe UI,Arial" text-anchor="middle">
    <g>
      <rect x="90"  y="150" width="150" height="120" rx="14" fill="#ffffff" opacity="0.12"/>
      <text x="165" y="220" font-size="46">🍳</text>
      <text x="165" y="252" font-size="16" fill="#fff">Bếp từ</text>
    </g>
    <g>
      <rect x="265" y="150" width="150" height="120" rx="14" fill="#ffffff" opacity="0.12"/>
      <text x="340" y="220" font-size="46">❄️</text>
      <text x="340" y="252" font-size="16" fill="#fff">Điều hòa</text>
    </g>
    <g>
      <rect x="440" y="150" width="150" height="120" rx="14" fill="#ffffff" opacity="0.12"/>
      <text x="515" y="220" font-size="46">🧺</text>
      <text x="515" y="252" font-size="16" fill="#fff">Máy giặt</text>
    </g>
    <g>
      <rect x="615" y="150" width="150" height="120" rx="14" fill="#ffffff" opacity="0.12"/>
      <text x="690" y="220" font-size="46">🍽️</text>
      <text x="690" y="252" font-size="16" fill="#fff">Rửa bát</text>
    </g>
    <g>
      <rect x="180" y="295" width="150" height="120" rx="14" fill="#ffffff" opacity="0.12"/>
      <text x="255" y="365" font-size="46">🔥</text>
      <text x="255" y="397" font-size="16" fill="#fff">Lò nướng</text>
    </g>
    <g>
      <rect x="355" y="295" width="150" height="120" rx="14" fill="#ffffff" opacity="0.12"/>
      <text x="430" y="365" font-size="46">📡</text>
      <text x="430" y="397" font-size="16" fill="#fff">Lò vi sóng</text>
    </g>
    <g>
      <rect x="530" y="295" width="150" height="120" rx="14" fill="#f6921e"/>
      <text x="605" y="358" font-size="30">📞</text>
      <text x="605" y="392" font-size="15" fill="#fff" font-weight="bold">Gọi ngay</text>
    </g>
  </g>
</svg>
